<?xml version="1.0" encoding="iso-8859-1"?>
<!-- Generator: Adobe Illustrator 19.0.0, SVG Export Plug-In . SVG Version: 6.00 Build 0)  -->
<svg version="1.1" id="Layer_1" xmlns="http://www.w3.org/2000/svg" xmlns:xlink="http://www.w3.org/1999/xlink" x="0px" y="0px"
	 viewBox="0 0 336.945 336.945" style="enable-background:new 0 0 336.945 336.945;" xml:space="preserve">
<g>
	<rect x="12.109" y="7.5" style="fill:#E8E8E8;" width="24" height="24"/>
	<g>
		<circle style="fill:#1E252B;" cx="143.533" cy="302.143" r="3.74"/>
		<circle style="fill:#61B4E4;" cx="305.977" cy="139.701" r="18.872"/>
		
			<rect x="219.528" y="111.88" transform="matrix(-0.7071 -0.7071 0.7071 -0.7071 260.4068 522.415)" style="fill:#1E252B;" width="37.742" height="190.79"/>
		
			<rect x="231.811" y="111.88" transform="matrix(-0.7071 -0.7071 0.7071 -0.7071 260.4341 522.424)" style="fill:#333E48;" width="13.208" height="190.788"/>
		<polygon style="fill:#61B4E4;" points="146.434,305.045 140.63,299.24 157.6,261.39 184.287,288.077 		"/>
	</g>
	<path style="fill:#071C2C;" d="M324.624,121.053c-9.939-9.938-25.9-10.268-36.242-0.994V7.5c0-4.143-3.357-7.5-7.5-7.5H12.109
		c-4.142,0-7.5,3.357-7.5,7.5v321.945c0,4.143,3.358,7.5,7.5,7.5h268.772c4.143,0,7.5-3.357,7.5-7.5V194.59l36.119-36.119
		c0.02-0.02,0.035-0.041,0.054-0.06c0.023-0.022,0.048-0.041,0.07-0.063C334.906,148.065,334.906,131.335,324.624,121.053z
		 M273.382,321.945H19.609V15h253.772v120l-28.69,28.691c-1.133-0.688-2.457-1.09-3.879-1.09H51.478c-4.142,0-7.5,3.357-7.5,7.5
		s3.358,7.5,7.5,7.5H230.78l-17.344,17.344H51.478c-4.142,0-7.5,3.357-7.5,7.5s3.358,7.5,7.5,7.5h146.958l-17.344,17.344H51.478
		c-4.142,0-7.5,3.357-7.5,7.5s3.358,7.5,7.5,7.5h114.615l-13.797,13.797c-0.203,0.203-0.388,0.416-0.563,0.635
		c-0.045,0.058-0.086,0.119-0.13,0.178c-0.129,0.172-0.252,0.347-0.364,0.527c-0.042,0.067-0.082,0.137-0.122,0.206
		c-0.109,0.187-0.208,0.378-0.3,0.571c-0.019,0.041-0.043,0.077-0.062,0.118l-1.226,2.735c-1.234-0.893-2.746-1.424-4.384-1.424
		H51.478c-4.142,0-7.5,3.357-7.5,7.5s3.358,7.5,7.5,7.5h91.965l-9.657,21.539c-0.173,0.387-0.305,0.783-0.409,1.184
		c-1.959,4.168-1.232,9.297,2.206,12.734c2.123,2.124,4.945,3.293,7.949,3.293c1.705,0,3.346-0.389,4.84-1.104
		c0.382-0.103,0.761-0.226,1.129-0.391l37.853-16.968c0.039-0.018,0.074-0.041,0.112-0.06c0.198-0.092,0.393-0.193,0.583-0.305
		c0.066-0.038,0.132-0.076,0.196-0.116c0.187-0.116,0.368-0.242,0.546-0.376c0.052-0.04,0.107-0.076,0.159-0.117
		c0.221-0.176,0.436-0.362,0.64-0.566l83.791-83.791v112.357H273.382z M171.287,285.685l-19.569,8.772
		c-0.082-0.087-0.154-0.179-0.238-0.264c-0.084-0.084-0.175-0.156-0.261-0.237l8.773-19.567L171.287,285.685z M184.287,277.471
		l-16.081-16.081L292.51,137.086l16.081,16.081L184.287,277.471z M317.297,140.659l-12.278-12.278
		c3.223-0.271,6.538,0.818,8.999,3.279C316.479,134.12,317.567,137.437,317.297,140.659z M51.478,112.914h189.334
		c4.143,0,7.5-3.357,7.5-7.5s-3.357-7.5-7.5-7.5H51.478c-4.142,0-7.5,3.357-7.5,7.5S47.336,112.914,51.478,112.914z M51.478,80.57
		h170.667c4.143,0,7.5-3.357,7.5-7.5s-3.357-7.5-7.5-7.5H51.478c-4.142,0-7.5,3.357-7.5,7.5S47.336,80.57,51.478,80.57z
		 M51.478,145.258h160c4.143,0,7.5-3.357,7.5-7.5s-3.357-7.5-7.5-7.5h-160c-4.142,0-7.5,3.357-7.5,7.5
		S47.336,145.258,51.478,145.258z"/>
</g>
<g>
</g>
<g>
</g>
<g>
</g>
<g>
</g>
<g>
</g>
<g>
</g>
<g>
</g>
<g>
</g>
<g>
</g>
<g>
</g>
<g>
</g>
<g>
</g>
<g>
</g>
<g>
</g>
<g>
</g>
</svg>
